# xmcd CD database file
#
# Track frame offsets:
#	150
#	25729
#	48721
#	73524
#	114052
#	150563
#	173322
#	207688
#	261726
#	301628
#
# Disc length: 4437 seconds
#
# Revision: 0
# Processed by: cddbd v1.5.2PL0 Copyright (c) Steve Scherf et al.
# Submitted via: Feurio! 1.68 - http://www.feurio.com
#
DISCID=7e11530a
DTITLE=Albert Collins - San Francisco Blues Festival   Great Meadow   Fort 
DTITLE=Mason   San Francisco, CA   09-11-88
DYEAR=1900
DGENRE=
TTITLE0=introduction instrumental - Icebreakers
TTITLE1=I Wonder (Why Are You So Mean To Me)
TTITLE2=Listen Here
TTITLE3=Lights Are On, But Nobody's Home
TTITLE4=I Ain't Drunk
TTITLE5=Black Cat Bone
TTITLE6=Too Many Dirty Dish
TTITLE7=Frosty
TTITLE8=Don't You Lie To Me
TTITLE9=Tired Man
EXTD=
EXTT0=
EXTT1=
EXTT2=
EXTT3=
EXTT4=
EXTT5=
EXTT6=
EXTT7=
EXTT8=
EXTT9=
PLAYORDER=
